{
  "accessors": [
    {
      "bufferView": 2,
      "componentType": 5126,
      "count": 1802,
      "max": [
        0.058764830231666565,
        1.2890483140945435,
        2.0875155925750732
      ],
      "min": [
        -0.060538142919540405,
        -0.21383197605609894,
        -1.3489843606948853
      ],
      "type": "VEC3"
    },
    {
      "bufferView": 2,
      "byteOffset": 21624,
      "componentType": 5126,
      "count": 1802,
      "max": [
        1.0,
        0.9999998211860657,
        0.9998984336853027
      ],
      "min": [
        -1.0,
        -0.9999988675117493,
        -0.9999876618385315
      ],
      "type": "VEC3"
    },
    {
      "bufferView": 3,
      "componentType": 5126,
      "count": 1802,
      "max": [
        1.0,
        0.9999877214431763,
        0.9999998211860657,
        1.0
      ],
      "min": [
        -1.0,
        -0.9998984932899475,
        -0.9999804496765137,
        1.0
      ],
      "type": "VEC4"
    },
    {
      "bufferView": 1,
      "componentType": 5126,
      "count": 1802,
      "max": [
        0.9943495988845825,
        0.8941488265991211
      ],
      "min": [
        0.005506900139153004,
        0.005497104488313198
      ],
      "type": "VEC2"
    },
    {
      "bufferView": 0,
      "componentType": 5125,
      "count": 5550,
      "type": "SCALAR"
    }
  ],
  "asset": {
    "extras": {
      "author": "FJH (https://sketchfab.com/FJH)",
      "license": "CC-BY-4.0 (http://creativecommons.org/licenses/by/4.0/)",
      "source": "https://sketchfab.com/3d-models/modern-tomahawk-1bcf4fae252e48c392c6b6704429c629",
      "title": "Modern Tomahawk"
    },
    "generator": "Sketchfab-12.67.0",
    "version": "2.0"
  },
  "bufferViews": [
    {
      "buffer": 0,
      "byteLength": 22200,
      "name": "floatBufferViews",
      "target": 34963
    },
    {
      "buffer": 0,
      "byteLength": 14416,
      "byteOffset": 22200,
      "byteStride": 8,
      "name": "floatBufferViews",
      "target": 34962
    },
    {
      "buffer": 0,
      "byteLength": 43248,
      "byteOffset": 36616,
      "byteStride": 12,
      "name": "floatBufferViews",
      "target": 34962
    },
    {
      "buffer": 0,
      "byteLength": 28832,
      "byteOffset": 79864,
      "byteStride": 16,
      "name": "floatBufferViews",
      "target": 34962
    }
  ],
  "buffers": [
    {
      "byteLength": 108696,
      "uri": "scene.bin"
    }
  ],
  "images": [
    {
      "uri": "textures/Scene_-_Root_baseColor.png"
    },
    {
      "uri": "textures/Scene_-_Root_metallicRoughness.png"
    },
    {
      "uri": "textures/Scene_-_Root_normal.png"
    }
  ],
  "materials": [
    {
      "doubleSided": true,
      "name": "Scene_-_Root",
      "normalTexture": {
        "index": 2
      },
      "occlusionTexture": {
        "index": 1
      },
      "pbrMetallicRoughness": {
        "baseColorTexture": {
          "index": 0
        },
        "metallicRoughnessTexture": {
          "index": 1
        }
      }
    }
  ],
  "meshes": [
    {
      "name": "Body__0",
      "primitives": [
        {
          "attributes": {
            "NORMAL": 1,
            "POSITION": 0,
            "TANGENT": 2,
            "TEXCOORD_0": 3
          },
          "indices": 4,
          "material": 0,
          "mode": 4
        }
      ]
    }
  ],
  "nodes": [
    {
      "children": [
        1
      ],
      "matrix": [
        0.004037395092430007,
        0.0003950287830713357,
        -0.00041624882503583916,
        0.0,
        5.415449508189198e-05,
        -0.003207049914900228,
        -0.002518286654102809,
        0.0,
        -0.0005712950888821788,
        0.0024877004215569385,
        -0.003180383367545558,
        0.0,
        4.458428382873535,
        56.688262939453125,
        8.228497505188,
        1.0
      ],
      "name": "Sketchfab_model"
    },
    {
      "children": [
        2
      ],
      "matrix": [
        1.0,
        0.0,
        0.0,
        0.0,
        0.0,
        0.0,
        1.0,
        0.0,
        0.0,
        -1.0,
        0.0,
        0.0,
        0.0,
        0.0,
        0.0,
        1.0
      ],
      "name": "Tomahawk_lowTris.fbx"
    },
    {
      "children": [
        3
      ],
      "name": "RootNode"
    },
    {
      "children": [
        4
      ],
      "matrix": [
        100.0,
        0.0,
        0.0,
        0.0,
        0.0,
        -1.629206793918314e-05,
        -99.99999999999868,
        0.0,
        0.0,
        99.99999999999868,
        -1.629206793918314e-05,
        0.0,
        0.0,
        0.0,
        0.0,
        1.0
      ],
      "name": "Body"
    },
    {
      "mesh": 0,
      "name": "Body__0"
    }
  ],
  "samplers": [
    {
      "magFilter": 9729,
      "minFilter": 9987,
      "wrapS": 10497,
      "wrapT": 10497
    }
  ],
  "scene": 0,
  "scenes": [
    {
      "name": "Sketchfab_Scene",
      "nodes": [
        0
      ]
    }
  ],
  "textures": [
    {
      "sampler": 0,
      "source": 0
    },
    {
      "sampler": 0,
      "source": 1
    },
    {
      "sampler": 0,
      "source": 2
    }
  ]
}
