{
  "accessors": [
    {
      "bufferView": 2,
      "componentType": 5126,
      "count": 3517,
      "max": [
        116.85673522949219,
        564.6903076171875,
        56.74740982055664
      ],
      "min": [
        -127.10469818115234,
        -386.89532470703125,
        -84.30340576171875
      ],
      "type": "VEC3"
    },
    {
      "bufferView": 2,
      "byteOffset": 42204,
      "componentType": 5126,
      "count": 3517,
      "max": [
        0.999801754951477,
        0.9999972581863403,
        0.9999567866325378
      ],
      "min": [
        -0.9998338222503662,
        -0.9999876618385315,
        -0.9998315572738647
      ],
      "type": "VEC3"
    },
    {
      "bufferView": 3,
      "componentType": 5126,
      "count": 3517,
      "max": [
        0.9999611973762512,
        0.9999808073043823,
        0.9999999403953552,
        1.0
      ],
      "min": [
        -0.9998996257781982,
        -0.9999904632568359,
        -1.0,
        -1.0
      ],
      "type": "VEC4"
    },
    {
      "bufferView": 1,
      "componentType": 5126,
      "count": 3517,
      "max": [
        0.9904890060424805,
        0.9998189806938171
      ],
      "min": [
        0.00018099999579135329,
        0.00018099999579135329
      ],
      "type": "VEC2"
    },
    {
      "bufferView": 1,
      "byteOffset": 28136,
      "componentType": 5126,
      "count": 3517,
      "max": [
        0.9904890060424805,
        0.9998189806938171
      ],
      "min": [
        0.00018099999579135329,
        0.00018099999579135329
      ],
      "type": "VEC2"
    },
    {
      "bufferView": 1,
      "byteOffset": 56272,
      "componentType": 5126,
      "count": 3517,
      "max": [
        0.9904890060424805,
        0.9998189806938171
      ],
      "min": [
        0.00018099999579135329,
        0.00018099999579135329
      ],
      "type": "VEC2"
    },
    {
      "bufferView": 0,
      "componentType": 5125,
      "count": 15480,
      "type": "SCALAR"
    }
  ],
  "asset": {
    "extras": {
      "author": "DopamineWarlock (https://sketchfab.com/DopamineWarlock)",
      "license": "CC-BY-4.0 (http://creativecommons.org/licenses/by/4.0/)",
      "source": "https://sketchfab.com/3d-models/primal-stone-dagger-f580d77a17fa4d7da05dad0928d0bedd",
      "title": "Primal Stone Dagger"
    },
    "generator": "Sketchfab-12.90.0",
    "version": "2.0"
  },
  "bufferViews": [
    {
      "buffer": 0,
      "byteLength": 61920,
      "name": "floatBufferViews",
      "target": 34963
    },
    {
      "buffer": 0,
      "byteLength": 84408,
      "byteOffset": 61920,
      "byteStride": 8,
      "name": "floatBufferViews",
      "target": 34962
    },
    {
      "buffer": 0,
      "byteLength": 84408,
      "byteOffset": 146328,
      "byteStride": 12,
      "name": "floatBufferViews",
      "target": 34962
    },
    {
      "buffer": 0,
      "byteLength": 56272,
      "byteOffset": 230736,
      "byteStride": 16,
      "name": "floatBufferViews",
      "target": 34962
    }
  ],
  "buffers": [
    {
      "byteLength": 287008,
      "uri": "scene.bin"
    }
  ],
  "images": [
    {
      "uri": "textures/primal_baseColor.png"
    },
    {
      "uri": "textures/primal_metallicRoughness.png"
    },
    {
      "uri": "textures/primal_normal.png"
    }
  ],
  "materials": [
    {
      "doubleSided": true,
      "name": "primal",
      "normalTexture": {
        "index": 2
      },
      "pbrMetallicRoughness": {
        "baseColorTexture": {
          "index": 0
        },
        "metallicRoughnessTexture": {
          "index": 1
        }
      }
    }
  ],
  "meshes": [
    {
      "name": "spear stone_primal_0",
      "primitives": [
        {
          "attributes": {
            "NORMAL": 1,
            "POSITION": 0,
            "TANGENT": 2,
            "TEXCOORD_0": 3,
            "TEXCOORD_1": 4,
            "TEXCOORD_2": 5
          },
          "indices": 6,
          "material": 0,
          "mode": 4
        }
      ]
    }
  ],
  "nodes": [
    {
      "children": [
        1
      ],
      "matrix": [
        1.0,
        0.0,
        0.0,
        0.0,
        0.0,
        2.220446049250313e-16,
        -1.0,
        0.0,
        0.0,
        1.0,
        2.220446049250313e-16,
        0.0,
        0.0,
        0.0,
        0.0,
        1.0
      ],
      "name": "Sketchfab_model"
    },
    {
      "children": [
        2
      ],
      "matrix": [
        0.009999999776482582,
        0.0,
        0.0,
        0.0,
        0.0,
        0.0,
        0.009999999776482582,
        0.0,
        0.0,
        -0.009999999776482582,
        0.0,
        0.0,
        0.0,
        0.0,
        0.0,
        1.0
      ],
      "name": "2c22b686874c4c1cb3565279f1bc7a57.fbx"
    },
    {
      "children": [
        3
      ],
      "name": "RootNode"
    },
    {
      "children": [
        4
      ],
      "matrix": [
        -8.455539142945181e-08,
        1.9344018030511483,
        0.32143967742003254,
        0.0,
        -7.18841667951683e-07,
        0.36699126553082423,
        -2.2085281177633087,
        0.0,
        -1.9609000682829778,
        -1.8661750536581224e-07,
        6.072323331634159e-07,
        0.0,
        -11.758187294006348,
        333.96685791015625,
        157.98080444335938,
        1.0
      ],
      "name": "spear stone"
    },
    {
      "mesh": 0,
      "name": "spear stone_primal_0"
    }
  ],
  "samplers": [
    {
      "magFilter": 9729,
      "minFilter": 9987,
      "wrapS": 10497,
      "wrapT": 10497
    }
  ],
  "scene": 0,
  "scenes": [
    {
      "name": "Sketchfab_Scene",
      "nodes": [
        0
      ]
    }
  ],
  "textures": [
    {
      "sampler": 0,
      "source": 0
    },
    {
      "sampler": 0,
      "source": 1
    },
    {
      "sampler": 0,
      "source": 2
    }
  ]
}
