{
  "accessors": [
    {
      "bufferView": 2,
      "componentType": 5126,
      "count": 834,
      "max": [
        46.57794952392578,
        14.316844940185547,
        7.173581600189209
      ],
      "min": [
        -98.23827362060547,
        -10.850505828857422,
        -7.171575546264648
      ],
      "type": "VEC3"
    },
    {
      "bufferView": 2,
      "byteOffset": 10008,
      "componentType": 5126,
      "count": 834,
      "max": [
        1.0,
        1.0,
        1.0
      ],
      "min": [
        -1.0,
        -1.0,
        -1.0
      ],
      "type": "VEC3"
    },
    {
      "bufferView": 3,
      "componentType": 5126,
      "count": 834,
      "max": [
        1.0,
        1.0,
        1.0,
        1.0
      ],
      "min": [
        -1.0,
        -1.0,
        -1.0,
        -1.0
      ],
      "type": "VEC4"
    },
    {
      "bufferView": 1,
      "componentType": 5126,
      "count": 834,
      "max": [
        0.99951171875,
        0.86962890625
      ],
      "min": [
        0.00048828125,
        0.001953125
      ],
      "type": "VEC2"
    },
    {
      "bufferView": 0,
      "componentType": 5125,
      "count": 2637,
      "type": "SCALAR"
    },
    {
      "bufferView": 2,
      "byteOffset": 20016,
      "componentType": 5126,
      "count": 104,
      "max": [
        -103.5406265258789,
        -7.103087902069092,
        -1.2619963884353638
      ],
      "min": [
        -110.4284896850586,
        -13.252907752990723,
        -1.5477182865142822
      ],
      "type": "VEC3"
    },
    {
      "bufferView": 2,
      "byteOffset": 21264,
      "componentType": 5126,
      "count": 104,
      "max": [
        0.9453110098838806,
        1.0,
        1.0
      ],
      "min": [
        -0.8739133477210999,
        -0.9655565619468689,
        -1.0
      ],
      "type": "VEC3"
    },
    {
      "bufferView": 3,
      "byteOffset": 13344,
      "componentType": 5126,
      "count": 104,
      "max": [
        0.9763801693916321,
        0.9453110098838806,
        1.0,
        1.0
      ],
      "min": [
        -1.0,
        -0.9668847918510437,
        -0.05667273700237274,
        -1.0
      ],
      "type": "VEC4"
    },
    {
      "bufferView": 1,
      "byteOffset": 6672,
      "componentType": 5126,
      "count": 104,
      "max": [
        0.34912109375,
        0.673828125
      ],
      "min": [
        0.0048828125,
        0.4814453125
      ],
      "type": "VEC2"
    },
    {
      "bufferView": 0,
      "byteOffset": 10548,
      "componentType": 5125,
      "count": 276,
      "type": "SCALAR"
    },
    {
      "bufferView": 2,
      "byteOffset": 22512,
      "componentType": 5126,
      "count": 302,
      "max": [
        0.40753504633903503,
        0.1062132939696312,
        0.0024409103207290173
      ],
      "min": [
        0.08958995342254639,
        0.0072995880618691444,
        -0.056972190737724304
      ],
      "type": "VEC3"
    },
    {
      "bufferView": 2,
      "byteOffset": 26136,
      "componentType": 5126,
      "count": 302,
      "max": [
        0.9995854496955872,
        0.9999520778656006,
        0.9995021820068359
      ],
      "min": [
        -0.9919940829277039,
        -0.9999520778656006,
        -0.9994107484817505
      ],
      "type": "VEC3"
    },
    {
      "bufferView": 3,
      "byteOffset": 15008,
      "componentType": 5126,
      "count": 302,
      "max": [
        0.9946626424789429,
        1.0,
        0.9919837117195129,
        1.0
      ],
      "min": [
        -0.9999198913574219,
        -1.0,
        -0.9943823218345642,
        1.0
      ],
      "type": "VEC4"
    },
    {
      "bufferView": 1,
      "byteOffset": 7504,
      "componentType": 5126,
      "count": 302,
      "max": [
        0.99755859375,
        0.73193359375
      ],
      "min": [
        0.21435546875,
        0.0185546875
      ],
      "type": "VEC2"
    },
    {
      "bufferView": 0,
      "byteOffset": 11652,
      "componentType": 5125,
      "count": 1044,
      "type": "SCALAR"
    },
    {
      "bufferView": 2,
      "byteOffset": 29760,
      "componentType": 5126,
      "count": 1877,
      "max": [
        133.43511962890625,
        16.373485565185547,
        8.02908992767334
      ],
      "min": [
        -266.6609802246094,
        -54.1638069152832,
        -8.026979446411133
      ],
      "type": "VEC3"
    },
    {
      "bufferView": 2,
      "byteOffset": 52284,
      "componentType": 5126,
      "count": 1877,
      "max": [
        1.0,
        1.0,
        1.0
      ],
      "min": [
        -1.0,
        -1.0,
        -1.0
      ],
      "type": "VEC3"
    },
    {
      "bufferView": 3,
      "byteOffset": 19840,
      "componentType": 5126,
      "count": 1877,
      "max": [
        1.0,
        1.0,
        1.0,
        1.0
      ],
      "min": [
        -1.0,
        -1.0,
        -1.0,
        -1.0
      ],
      "type": "VEC4"
    },
    {
      "bufferView": 1,
      "byteOffset": 9920,
      "componentType": 5126,
      "count": 1877,
      "max": [
        1.0,
        0.99951171875
      ],
      "min": [
        0.00146484375,
        0.00048828125
      ],
      "type": "VEC2"
    },
    {
      "bufferView": 0,
      "byteOffset": 15828,
      "componentType": 5125,
      "count": 7410,
      "type": "SCALAR"
    },
    {
      "bufferView": 2,
      "byteOffset": 74808,
      "componentType": 5126,
      "count": 274,
      "max": [
        -129.4697723388672,
        -8.62286376953125,
        1.6440842151641846
      ],
      "min": [
        -133.00811767578125,
        -12.161191940307617,
        -2.153848171234131
      ],
      "type": "VEC3"
    },
    {
      "bufferView": 2,
      "byteOffset": 78096,
      "componentType": 5126,
      "count": 274,
      "max": [
        1.0,
        1.0,
        1.0
      ],
      "min": [
        -1.0,
        -1.0,
        -1.0
      ],
      "type": "VEC3"
    },
    {
      "bufferView": 3,
      "byteOffset": 49872,
      "componentType": 5126,
      "count": 274,
      "max": [
        1.0,
        1.0,
        0.9999592304229736,
        1.0
      ],
      "min": [
        -1.0,
        -0.9995269775390625,
        -1.0,
        1.0
      ],
      "type": "VEC4"
    },
    {
      "bufferView": 1,
      "byteOffset": 24936,
      "componentType": 5126,
      "count": 274,
      "max": [
        0.9990234375,
        0.83154296875
      ],
      "min": [
        0.38623046875,
        0.7275390625
      ],
      "type": "VEC2"
    },
    {
      "bufferView": 0,
      "byteOffset": 45468,
      "componentType": 5125,
      "count": 936,
      "type": "SCALAR"
    },
    {
      "bufferView": 2,
      "byteOffset": 81384,
      "componentType": 5126,
      "count": 109,
      "max": [
        -125.95524597167969,
        -8.642475128173828,
        0.5872050523757935
      ],
      "min": [
        -129.23284912109375,
        -16.545461654663086,
        -0.5850950479507446
      ],
      "type": "VEC3"
    },
    {
      "bufferView": 2,
      "byteOffset": 82692,
      "componentType": 5126,
      "count": 109,
      "max": [
        0.9998778700828552,
        0.5333330035209656,
        1.0
      ],
      "min": [
        -0.9999266266822815,
        -0.7462553977966309,
        -1.0
      ],
      "type": "VEC3"
    },
    {
      "bufferView": 3,
      "byteOffset": 54256,
      "componentType": 5126,
      "count": 109,
      "max": [
        0.9999794363975525,
        0.9999265670776367,
        0.06535317003726959,
        1.0
      ],
      "min": [
        -0.7462553977966309,
        -0.14668552577495575,
        -0.07811519503593445,
        1.0
      ],
      "type": "VEC4"
    },
    {
      "bufferView": 1,
      "byteOffset": 27128,
      "componentType": 5126,
      "count": 109,
      "max": [
        0.58740234375,
        0.51904296875
      ],
      "min": [
        0.0478515625,
        0.00244140625
      ],
      "type": "VEC2"
    },
    {
      "bufferView": 0,
      "byteOffset": 49212,
      "componentType": 5125,
      "count": 294,
      "type": "SCALAR"
    },
    {
      "bufferView": 2,
      "byteOffset": 84000,
      "componentType": 5126,
      "count": 168,
      "max": [
        0.03344130516052246,
        0.033441200852394104,
        0.19255785644054413
      ],
      "min": [
        -0.03344082832336426,
        -0.0334412083029747,
        -2.9802322387695313e-08
      ],
      "type": "VEC3"
    },
    {
      "bufferView": 2,
      "byteOffset": 86016,
      "componentType": 5126,
      "count": 168,
      "max": [
        0.9999999403953552,
        0.9999999403953552,
        1.0
      ],
      "min": [
        -0.9999999403953552,
        -0.980785608291626,
        -1.0
      ],
      "type": "VEC3"
    },
    {
      "bufferView": 3,
      "byteOffset": 56000,
      "componentType": 5126,
      "count": 168,
      "max": [
        0.7788099646568298,
        0.8698810935020447,
        0.9999999403953552,
        1.0
      ],
      "min": [
        -0.8314709067344666,
        -0.7748922109603882,
        -0.8706455230712891,
        1.0
      ],
      "type": "VEC4"
    },
    {
      "bufferView": 1,
      "byteOffset": 28000,
      "componentType": 5126,
      "count": 168,
      "max": [
        0.96875,
        0.995501697063446
      ],
      "min": [
        0.030305013060569763,
        0.0
      ],
      "type": "VEC2"
    },
    {
      "bufferView": 0,
      "byteOffset": 50388,
      "componentType": 5125,
      "count": 576,
      "type": "SCALAR"
    }
  ],
  "asset": {
    "extras": {
      "author": "tris.blend (https://sketchfab.com/tris09)",
      "license": "CC-BY-4.0 (http://creativecommons.org/licenses/by/4.0/)",
      "source": "https://sketchfab.com/3d-models/remington-870-pbrgr-26e37df4c38c4e8a9da8adeb4b66bff6",
      "title": "Remington 870 (PBR|GR)"
    },
    "generator": "Sketchfab-15.10.0",
    "version": "2.0"
  },
  "bufferViews": [
    {
      "buffer": 0,
      "byteLength": 52692,
      "name": "floatBufferViews",
      "target": 34963
    },
    {
      "buffer": 0,
      "byteLength": 29344,
      "byteOffset": 52692,
      "byteStride": 8,
      "name": "floatBufferViews",
      "target": 34962
    },
    {
      "buffer": 0,
      "byteLength": 88032,
      "byteOffset": 82036,
      "byteStride": 12,
      "name": "floatBufferViews",
      "target": 34962
    },
    {
      "buffer": 0,
      "byteLength": 58688,
      "byteOffset": 170068,
      "byteStride": 16,
      "name": "floatBufferViews",
      "target": 34962
    }
  ],
  "buffers": [
    {
      "byteLength": 228756,
      "uri": "scene.bin"
    }
  ],
  "extensionsUsed": [
    "KHR_materials_specular"
  ],
  "images": [
    {
      "uri": "textures/remington_baseColor.jpeg"
    },
    {
      "uri": "textures/remington_metallicRoughness.png"
    },
    {
      "uri": "textures/remington_normal.png"
    },
    {
      "uri": "textures/12ge_baseColor.png"
    },
    {
      "uri": "textures/12ge_metallicRoughness.png"
    },
    {
      "uri": "textures/12ge_normal.png"
    }
  ],
  "materials": [
    {
      "doubleSided": true,
      "extensions": {
        "KHR_materials_specular": {
          "specularColorFactor": [
            1.0,
            1.0,
            1.0
          ],
          "specularFactor": 0.5544843858011491
        }
      },
      "name": "remington",
      "normalTexture": {
        "index": 2
      },
      "occlusionTexture": {
        "index": 1
      },
      "pbrMetallicRoughness": {
        "baseColorTexture": {
          "index": 0
        },
        "metallicRoughnessTexture": {
          "index": 1
        }
      }
    },
    {
      "doubleSided": true,
      "extensions": {
        "KHR_materials_specular": {
          "specularColorFactor": [
            1.0,
            1.0,
            1.0
          ],
          "specularFactor": 1.0
        }
      },
      "name": "12ge",
      "normalTexture": {
        "index": 5
      },
      "occlusionTexture": {
        "index": 4
      },
      "pbrMetallicRoughness": {
        "baseColorTexture": {
          "index": 3
        },
        "metallicRoughnessTexture": {
          "index": 4
        }
      }
    }
  ],
  "meshes": [
    {
      "name": "action_low_remington_0",
      "primitives": [
        {
          "attributes": {
            "NORMAL": 1,
            "POSITION": 0,
            "TANGENT": 2,
            "TEXCOORD_0": 3
          },
          "indices": 4,
          "material": 0,
          "mode": 4
        }
      ]
    },
    {
      "name": "actionbarLock_remington_0",
      "primitives": [
        {
          "attributes": {
            "NORMAL": 6,
            "POSITION": 5,
            "TANGENT": 7,
            "TEXCOORD_0": 8
          },
          "indices": 9,
          "material": 0,
          "mode": 4
        }
      ]
    },
    {
      "name": "carrierAssembly_remington_0",
      "primitives": [
        {
          "attributes": {
            "NORMAL": 11,
            "POSITION": 10,
            "TANGENT": 12,
            "TEXCOORD_0": 13
          },
          "indices": 14,
          "material": 0,
          "mode": 4
        }
      ]
    },
    {
      "name": "main_remington_0",
      "primitives": [
        {
          "attributes": {
            "NORMAL": 16,
            "POSITION": 15,
            "TANGENT": 17,
            "TEXCOORD_0": 18
          },
          "indices": 19,
          "material": 0,
          "mode": 4
        }
      ]
    },
    {
      "name": "safety_remington_0",
      "primitives": [
        {
          "attributes": {
            "NORMAL": 21,
            "POSITION": 20,
            "TANGENT": 22,
            "TEXCOORD_0": 23
          },
          "indices": 24,
          "material": 0,
          "mode": 4
        }
      ]
    },
    {
      "name": "trigger_remington_0",
      "primitives": [
        {
          "attributes": {
            "NORMAL": 26,
            "POSITION": 25,
            "TANGENT": 27,
            "TEXCOORD_0": 28
          },
          "indices": 29,
          "material": 0,
          "mode": 4
        }
      ]
    },
    {
      "name": "12ge_low_12ge_0",
      "primitives": [
        {
          "attributes": {
            "NORMAL": 31,
            "POSITION": 30,
            "TANGENT": 32,
            "TEXCOORD_0": 33
          },
          "indices": 34,
          "material": 1,
          "mode": 4
        }
      ]
    }
  ],
  "nodes": [
    {
      "children": [
        1
      ],
      "matrix": [
        0.005633642431348562,
        0.0,
        0.0,
        0.0,
        0.0,
        1.2509199079576843e-18,
        -0.005633642431348562,
        0.0,
        0.0,
        0.005633642431348562,
        1.2509199079576843e-18,
        0.0,
        0.0,
        0.0,
        0.0,
        1.0
      ],
      "name": "Sketchfab_model"
    },
    {
      "children": [
        2
      ],
      "matrix": [
        1.0,
        0.0,
        0.0,
        0.0,
        0.0,
        0.0,
        1.0,
        0.0,
        0.0,
        -1.0,
        0.0,
        0.0,
        0.0,
        0.0,
        0.0,
        1.0
      ],
      "name": "1c97e0544670477abb93d151e6a7a2b1.fbx"
    },
    {
      "children": [
        3,
        5,
        7,
        9,
        11,
        13,
        15
      ],
      "name": "RootNode"
    },
    {
      "children": [
        4
      ],
      "matrix": [
        1.0,
        0.0,
        0.0,
        0.0,
        0.0,
        0.9999999999999867,
        1.6292067073209113e-07,
        0.0,
        0.0,
        -1.6292067073209113e-07,
        0.9999999999999867,
        0.0,
        74.30000305175781,
        -2.8950021266937256,
        -0.001055002212524414,
        1.0
      ],
      "name": "action_low"
    },
    {
      "mesh": 0,
      "name": "action_low_remington_0"
    },
    {
      "children": [
        6
      ],
      "matrix": [
        1.0,
        0.0,
        0.0,
        0.0,
        0.0,
        0.9999999999999867,
        1.6292067073209113e-07,
        0.0,
        0.0,
        -1.6292067073209113e-07,
        0.9999999999999867,
        0.0,
        74.30000305175781,
        -2.8950021266937256,
        -0.0010550316656008363,
        1.0
      ],
      "name": "actionbarLock"
    },
    {
      "mesh": 1,
      "name": "actionbarLock_remington_0"
    },
    {
      "children": [
        8
      ],
      "matrix": [
        96.86153603205435,
        24.856444587088998,
        3.1361135882645996e-06,
        0.0,
        4.124197539034924e-06,
        -3.454426056315185e-06,
        -99.99999999999986,
        0.0,
        -24.856444587088852,
        96.86153603205435,
        -4.371139006309477e-06,
        0.0,
        -32.3234748840332,
        -6.00264835357666,
        5.6745195388793945,
        1.0
      ],
      "name": "carrierAssembly"
    },
    {
      "mesh": 2,
      "name": "carrierAssembly_remington_0"
    },
    {
      "children": [
        10
      ],
      "matrix": [
        1.0,
        0.0,
        0.0,
        0.0,
        0.0,
        0.9999999999999867,
        1.6292067073209113e-07,
        0.0,
        0.0,
        -1.6292067073209113e-07,
        0.9999999999999867,
        0.0,
        74.30000305175781,
        -2.8950021266937256,
        -0.001055002212524414,
        1.0
      ],
      "name": "main"
    },
    {
      "mesh": 3,
      "name": "main_remington_0"
    },
    {
      "children": [
        12
      ],
      "matrix": [
        1.0,
        0.0,
        0.0,
        0.0,
        0.0,
        0.9999999999999867,
        1.6292067073209113e-07,
        0.0,
        0.0,
        -1.6292067073209113e-07,
        0.9999999999999867,
        0.0,
        74.30000305175781,
        -2.8950021266937256,
        -0.001055002212524414,
        1.0
      ],
      "name": "safety"
    },
    {
      "mesh": 4,
      "name": "safety_remington_0"
    },
    {
      "children": [
        14
      ],
      "matrix": [
        1.0,
        0.0,
        0.0,
        0.0,
        0.0,
        0.9999999999999867,
        1.6292067073209113e-07,
        0.0,
        0.0,
        -1.6292067073209113e-07,
        0.9999999999999867,
        0.0,
        74.30000305175781,
        -2.8950021266937256,
        -0.001055002212524414,
        1.0
      ],
      "name": "trigger"
    },
    {
      "mesh": 5,
      "name": "trigger_remington_0"
    },
    {
      "children": [
        16
      ],
      "matrix": [
        22.181396984946186,
        -97.50890807344311,
        -2.660851292471172e-06,
        0.0,
        -2.810039703149414e-05,
        -3.663469727577251e-06,
        -99.99999999999599,
        0.0,
        97.50890807343909,
        22.181396984946065,
        -2.821299906894657e-05,
        0.0,
        -7.5685858726501465,
        -9.363496780395508,
        -1.4316111673906562e-06,
        1.0
      ],
      "name": "12ge_low"
    },
    {
      "mesh": 6,
      "name": "12ge_low_12ge_0"
    }
  ],
  "samplers": [
    {
      "magFilter": 9729,
      "minFilter": 9987,
      "wrapS": 10497,
      "wrapT": 10497
    }
  ],
  "scene": 0,
  "scenes": [
    {
      "name": "Sketchfab_Scene",
      "nodes": [
        0
      ]
    }
  ],
  "textures": [
    {
      "sampler": 0,
      "source": 0
    },
    {
      "sampler": 0,
      "source": 1
    },
    {
      "sampler": 0,
      "source": 2
    },
    {
      "sampler": 0,
      "source": 3
    },
    {
      "sampler": 0,
      "source": 4
    },
    {
      "sampler": 0,
      "source": 5
    }
  ]
}
